SplineFontDB: 3.0
FontName: f0ntuni-th-pi-calt
FullName: F0ntUni TH-PI CALT
FamilyName: F0ntUni TH-PI CALT
Weight: Regular
Copyright: (c) 2014, Sungsit Sawaiwan.\n\nCreated by Sungsit Sawaiwan with the help from F0nt.com community.\n\nThis work is licensed under the Creative Commons Attribution 4.0 International License. To view a copy of this license, visit http://creativecommons.org/licenses/by/4.0/.
Version: 0.1-alpha1
ItalicAngle: 0
UnderlinePosition: -60
UnderlineWidth: 60
Ascent: 960
Descent: 240
LayerCount: 2
Layer: 0 0 "Back"  1
Layer: 1 0 "Fore"  0
FSType: 8
OS2Version: 0
OS2_WeightWidthSlopeOnly: 0
OS2_UseTypoMetrics: 1
CreationTime: 1394964730
ModificationTime: 1396095160
PfmFamily: 33
TTFWeight: 400
TTFWidth: 5
LineGap: 108
VLineGap: 0
OS2TypoAscent: 960
OS2TypoAOffset: 0
OS2TypoDescent: -240
OS2TypoDOffset: 0
OS2TypoLinegap: 108
OS2WinAscent: 1080
OS2WinAOffset: 0
OS2WinDescent: 390
OS2WinDOffset: 0
HheadAscent: 1080
HheadAOffset: 0
HheadDescent: -390
HheadDOffset: 0
OS2Vendor: 'BUni'
Lookup: 1 0 0 "'locl' Localiized Thai to Pali"  {"'locl' Localiized Thai to Pali" ("descless" ) } ['locl' ('thai' <'PAL ' 'SAN ' > ) ]
Lookup: 1 0 0 "'salt' Thai-Pali Stylistic Alt"  {"'salt' Thai-Pali Stylistic Alt" ("descless" ) } ['salt' ('DFLT' <'dflt' > 'latn' <'dflt' > 'thai' <'dflt' > ) ]
Lookup: 1 0 0 "'ss01' Thai-Pali Style Set"  {"'ss01' Thai-Pali Style Set" ("descless" ) } ['ss01' ('DFLT' <'dflt' > 'latn' <'dflt' > 'thai' <'dflt' > ) ]
Lookup: 6 0 0 "'calt' TH Descless"  {"'calt' TH Descless"  } ['calt' ('DFLT' <'dflt' > 'latn' <'dflt' > 'thai' <'PAL ' 'SAN ' 'dflt' > ) ]
Lookup: 1 0 0 "TH Descless"  {"TH Descless" ("descless" ) } []
Lookup: 6 0 0 "'calt' TH Vow Lower"  {"'calt' TH Vow Lower"  } ['calt' ('DFLT' <'dflt' > 'latn' <'dflt' > 'thai' <'PAL ' 'SAN ' 'dflt' > ) ]
Lookup: 1 0 0 "TH Vow Lower"  {"TH Vow Lower" ("low" ) } []

StartChar: uni0E2D
Encoding: 205 3629 0
Width: 680
VWidth: 0
Flags: W
HStem: 0 80<175 485> 240 80<175 255> 520 80<175 485>
VStem: 80 95<80 240 400 520> 485 95<80 520>
LayerCount: 2
Fore
SplineSet
80 600 m 1
 580 600 l 1
 580 0 l 1
 80 0 l 1
 80 320 l 1
 255 320 l 1
 255 240 l 1
 175 240 l 1
 175 80 l 1
 485 80 l 1
 485 520 l 1
 175 520 l 1
 175 400 l 1
 80 400 l 1
 80 600 l 1
EndSplineSet
Validated: 1
Colour: ff00
EndChar

StartChar: uni0E01
Encoding: 161 3585 1
Width: 690
VWidth: 0
Flags: W
HStem: 0 21G<100 195 495 590> 520 80<50 100 195 495>
VStem: 100 95<0 520> 495 95<0 520>
LayerCount: 2
Fore
SplineSet
495 0 m 1
 495 520 l 1
 195 520 l 1
 195 0 l 1
 100 0 l 1
 100 520 l 1
 50 520 l 1
 50 600 l 1
 590 600 l 1
 590 0 l 1
 495 0 l 1
EndSplineSet
Validated: 1
Colour: ff00
EndChar

StartChar: uni0E17
Encoding: 183 3607 2
Width: 690
VWidth: 0
Flags: W
HStem: 0 21G<110 205 495 590> 520 80<50 110>
VStem: 50 155<520 600> 110 95<0 380 460 520> 495 95<0 520>
LayerCount: 2
Fore
SplineSet
50 600 m 1xe8
 205 600 l 1xe8
 205 460 l 1
 485 600 l 1
 590 600 l 1
 590 0 l 1
 495 0 l 1
 495 520 l 1
 205 380 l 1
 205 0 l 1
 110 0 l 1
 110 520 l 1xd8
 50 520 l 1
 50 600 l 1xe8
EndSplineSet
Validated: 1
Colour: ff00
EndChar

StartChar: uni0E19
Encoding: 185 3609 3
Width: 680
VWidth: -360
Flags: W
HStem: 0 80<570 630> 520 80<50 110>
VStem: 50 155<520 600> 110 95<80 520> 475 155<0 80> 475 95<80 140 220 600>
LayerCount: 2
Fore
SplineSet
50 600 m 1xe0
 205 600 l 1xe0
 205 80 l 1
 475 220 l 1
 475 600 l 1
 570 600 l 1
 570 80 l 1xd4
 630 80 l 1
 630 0 l 1
 475 0 l 1xc8
 475 140 l 1
 215 0 l 1
 110 0 l 1
 110 520 l 1xd4
 50 520 l 1
 50 600 l 1xe0
EndSplineSet
Validated: 1
Colour: ff00
EndChar

StartChar: uni0E21
Encoding: 193 3617 4
Width: 690
VWidth: 0
Flags: W
HStem: 0 80<50 110> 520 80<50 110>
VStem: 50 155<0 80 520 600> 110 95<80 140 220 520> 495 95<80 600>
LayerCount: 2
Fore
SplineSet
50 600 m 1xe8
 205 600 l 1xe8
 205 220 l 1
 495 80 l 1
 495 600 l 1
 590 600 l 1
 590 0 l 1
 485 0 l 1
 205 140 l 1xd8
 205 0 l 1
 50 0 l 1
 50 80 l 1xe8
 110 80 l 1
 110 520 l 1xd8
 50 520 l 1
 50 600 l 1xe8
EndSplineSet
Validated: 1
Colour: ff00
EndChar

StartChar: uni0E1A
Encoding: 186 3610 5
Width: 710
VWidth: 0
Flags: W
HStem: 0 80<205 515> 520 80<50 110>
VStem: 50 155<520 600> 110 95<80 520> 515 95<80 600>
LayerCount: 2
Fore
SplineSet
50 600 m 1xe8
 205 600 l 1xe8
 205 80 l 1
 515 80 l 1
 515 600 l 5
 610 600 l 5
 610 0 l 1
 110 0 l 1
 110 520 l 1xd8
 50 520 l 1
 50 600 l 1xe8
EndSplineSet
Validated: 1
Colour: ff00
EndChar

StartChar: uni0E1B
Encoding: 187 3611 6
Width: 710
VWidth: 0
Flags: W
HStem: 0 80<205 515> 520 80<50 110>
VStem: 50 155<520 600> 110 95<80 520> 515 95<80 840>
LayerCount: 2
Fore
SplineSet
50 600 m 1xe8
 205 600 l 1xe8
 205 80 l 1
 515 80 l 1
 515 840 l 1
 610 840 l 1
 610 0 l 1
 110 0 l 1
 110 520 l 5xd8
 50 520 l 1
 50 600 l 1xe8
EndSplineSet
Validated: 1
Colour: ff00
EndChar

StartChar: uni0E04
Encoding: 164 3588 7
Width: 700
VWidth: 0
Flags: W
HStem: 0 21G<80 175 505 600> 200 120<295 385> 240 80<175 295> 520 80<175 505>
VStem: 80 95<0 240 320 520> 295 90<200 240> 505 95<0 520>
CounterMasks: 1 0e
LayerCount: 2
Fore
SplineSet
80 0 m 5xbe
 80 600 l 5
 600 600 l 5
 600 0 l 5
 505 0 l 5
 505 520 l 5
 175 520 l 5
 175 320 l 5xbe
 385 320 l 5
 385 200 l 5
 295 200 l 5xde
 295 240 l 5
 175 240 l 5
 175 0 l 5
 80 0 l 5xbe
EndSplineSet
Validated: 1
Colour: ff00
EndChar

StartChar: uni0E05
Encoding: 165 3589 8
Width: 700
VWidth: 0
Flags: W
HStem: 0 21G<80 175 505 600> 200 120<295 385> 240 80<175 295>
VStem: 80 95<0 240 320 520> 295 90<200 240> 505 95<0 520>
CounterMasks: 1 1c
LayerCount: 2
Fore
SplineSet
80 0 m 1xbc
 80 600 l 1
 185 600 l 1
 340 500 l 5
 495 600 l 1
 600 600 l 1
 600 0 l 1
 505 0 l 1
 505 520 l 1
 340 420 l 1
 175 520 l 1
 175 320 l 1xbc
 385 320 l 1
 385 200 l 1
 295 200 l 1xdc
 295 240 l 1
 175 240 l 1
 175 0 l 1
 80 0 l 1xbc
EndSplineSet
Validated: 1
Colour: ff00
EndChar

StartChar: uni0E02
Encoding: 162 3586 9
Width: 660
VWidth: 0
Flags: W
HStem: 0 80<175 465> 520 80<80 220>
VStem: 80 95<80 240> 220 90<470 520> 465 95<80 600>
LayerCount: 2
Fore
SplineSet
310 600 m 1
 310 450 l 1
 175 240 l 1
 175 80 l 1
 465 80 l 1
 465 600 l 1
 560 600 l 1
 560 0 l 1
 80 0 l 1
 80 260 l 1
 220 470 l 1
 220 520 l 1
 80 520 l 1
 80 600 l 1
 310 600 l 1
EndSplineSet
Validated: 1
Colour: ff00
EndChar

StartChar: uni0E03
Encoding: 163 3587 10
Width: 690
VWidth: 0
Flags: W
HStem: 0 80<205 495>
VStem: 40 85<420 520> 110 95<80 210> 315 85<450 520> 495 95<80 600>
LayerCount: 2
Fore
SplineSet
590 0 m 1xb8
 110 0 l 1
 110 230 l 1xb8
 315 450 l 1
 315 520 l 1
 220 470 l 1
 125 520 l 1
 125 420 l 1
 40 420 l 1
 40 600 l 1xd8
 135 600 l 1
 220 550 l 1
 305 600 l 1
 400 600 l 1
 400 420 l 1
 205 210 l 5
 205 80 l 5
 495 80 l 1
 495 600 l 1
 590 600 l 1
 590 0 l 1xb8
EndSplineSet
Validated: 1
Colour: ff00
EndChar

StartChar: uni0E06
Encoding: 166 3590 11
Width: 690
VWidth: -360
Flags: W
HStem: 0 80<50 110>
VStem: 40 85<420 520> 50 155<0 80> 110 95<80 140> 315 85<450 520> 495 95<80 600>
LayerCount: 2
Fore
SplineSet
40 600 m 1xcc
 135 600 l 1
 220 550 l 1
 305 600 l 1
 400 600 l 1
 400 420 l 1
 215 215 l 1
 495 80 l 1
 495 600 l 1
 590 600 l 1
 590 0 l 1
 485 0 l 1
 205 140 l 1x9c
 205 0 l 1
 50 0 l 1
 50 80 l 1xac
 110 80 l 1
 110 230 l 1x9c
 315 450 l 1
 315 520 l 1
 220 470 l 1
 125 520 l 1
 125 420 l 1
 40 420 l 1
 40 600 l 1xcc
EndSplineSet
Validated: 1
Colour: ff00
EndChar

StartChar: uni0E07
Encoding: 167 3591 12
Width: 590
VWidth: 0
Flags: W
HStem: 0 80<350 395> 521 79<315 395>
VStem: 395 95<80 521>
LayerCount: 2
Fore
SplineSet
290 0 m 1
 40 420 l 1
 150 420 l 1
 350 80 l 1
 395 80 l 1
 395 521 l 1
 315 521 l 1
 315 600 l 1
 490 600 l 1
 490 0 l 1
 290 0 l 1
EndSplineSet
Validated: 1
Colour: ff00
EndChar

StartChar: uni0E16
Encoding: 182 3606 13
Width: 690
VWidth: 0
Flags: W
HStem: 0 80<195 275> 520 80<50 100 195 495>
VStem: 100 95<80 520> 495 95<0 520>
LayerCount: 2
Fore
SplineSet
495 0 m 1
 495 520 l 1
 195 520 l 1
 195 80 l 1
 275 80 l 1
 275 0 l 1
 100 0 l 1
 100 520 l 1
 50 520 l 1
 50 600 l 1
 590 600 l 1
 590 0 l 1
 495 0 l 1
EndSplineSet
Validated: 1
Colour: ff00
EndChar

StartChar: uni0E2E
Encoding: 206 3630 14
Width: 680
VWidth: 0
Flags: W
HStem: 0 80<175 485> 240 80<175 255> 520 80<175 485>
VStem: 80 95<80 240 400 520> 485 95<80 520 600 680>
LayerCount: 2
Fore
SplineSet
80 600 m 5
 490 600 l 5
 490 680 l 5
 580 680 l 5
 580 0 l 5
 80 0 l 5
 80 320 l 5
 255 320 l 5
 255 240 l 5
 175 240 l 5
 175 80 l 5
 485 80 l 5
 485 520 l 5
 175 520 l 5
 175 400 l 5
 80 400 l 5
 80 600 l 5
EndSplineSet
Validated: 1
Colour: ff00
EndChar

StartChar: uni0E20
Encoding: 192 3616 15
Width: 690
VWidth: 0
Flags: W
HStem: 0 80<50 110> 520 80<50 110 205 495>
VStem: 50 155<0 80> 110 95<80 520> 495 95<0 520>
LayerCount: 2
Fore
SplineSet
495 0 m 1xe8
 495 520 l 1
 205 520 l 1xd8
 205 0 l 1
 50 0 l 5
 50 80 l 5xe8
 110 80 l 1
 110 520 l 1xd8
 50 520 l 1
 50 600 l 1
 590 600 l 1
 590 0 l 1
 495 0 l 1xe8
EndSplineSet
Validated: 1
Colour: ff00
EndChar

StartChar: uni0E14
Encoding: 180 3604 16
Width: 700
VWidth: 0
Flags: W
HStem: 0 80<175 305> 240 80<245 305> 520 80<175 505>
VStem: 80 95<80 520> 245 150<240 320> 305 90<80 240> 505 95<0 520>
LayerCount: 2
Fore
SplineSet
80 0 m 1xf6
 80 600 l 1
 600 600 l 1
 600 0 l 1
 505 0 l 1
 505 520 l 1
 175 520 l 1
 175 80 l 1
 305 80 l 1
 305 240 l 1xf6
 245 240 l 1
 245 320 l 1
 395 320 l 1xfa
 395 0 l 1
 80 0 l 1xf6
EndSplineSet
Validated: 1
Colour: ff00
EndChar

StartChar: uni0E15
Encoding: 181 3605 17
Width: 700
VWidth: 0
Flags: W
HStem: 0 80<175 305> 240 80<245 305>
VStem: 80 95<80 520> 245 150<240 320> 305 90<80 240> 505 95<0 520>
LayerCount: 2
Fore
SplineSet
80 0 m 1xec
 80 600 l 1
 185 600 l 1
 340 500 l 5
 495 600 l 1
 600 600 l 1
 600 0 l 1
 505 0 l 1
 505 520 l 1
 340 420 l 1
 175 520 l 1
 175 80 l 1
 305 80 l 1
 305 240 l 1xec
 245 240 l 1
 245 320 l 1
 395 320 l 1xf4
 395 0 l 1
 80 0 l 1xec
EndSplineSet
Validated: 1
Colour: ff00
EndChar

StartChar: uni0E08
Encoding: 168 3592 19
Width: 650
VWidth: -360
Flags: W
HStem: 0 80<360 455> 240 80<100 170> 520 80<165 455>
VStem: 70 95<400 520> 455 95<80 520>
LayerCount: 2
Fore
SplineSet
70 600 m 5
 550 600 l 5
 550 0 l 5
 300 0 l 5
 170 240 l 5
 100 240 l 5
 100 320 l 5
 230 320 l 5
 360 80 l 5
 455 80 l 5
 455 520 l 5
 165 520 l 5
 165 400 l 5
 70 400 l 5
 70 600 l 5
EndSplineSet
Validated: 1
Colour: ff00
EndChar

StartChar: uni0E09
Encoding: 169 3593 20
Width: 680
VWidth: 0
Flags: W
HStem: 0 80<570 630> 240 80<50 110> 520 80<145 475>
VStem: 50 95<400 520> 110 95<80 240> 475 155<0 80> 475 95<80 140 220 520>
LayerCount: 2
Fore
SplineSet
50 600 m 1xf2
 570 600 l 1
 570 80 l 1xf2
 630 80 l 1
 630 0 l 1
 475 0 l 1xe4
 475 140 l 1
 215 0 l 1
 110 0 l 1
 110 240 l 1xea
 50 240 l 1
 50 320 l 1xf0
 205 320 l 1
 205 80 l 1xe8
 475 220 l 1
 475 520 l 1
 145 520 l 1
 145 400 l 1
 50 400 l 1
 50 600 l 1xf2
EndSplineSet
Validated: 1
Colour: ff00
EndChar

StartChar: uni0E0A
Encoding: 170 3594 21
Width: 660
VWidth: -360
Flags: W
HStem: 0 80<175 465> 360 70<310 370> 520 80<80 220>
VStem: 80 95<80 240> 220 90<470 520> 465 95<80 360>
LayerCount: 2
Fore
SplineSet
470 430 m 1
 560 430 l 1
 560 0 l 1
 80 0 l 1
 80 260 l 1
 220 470 l 1
 220 520 l 1
 80 520 l 1
 80 600 l 1
 310 600 l 1
 310 450 l 1
 175 240 l 5
 175 80 l 5
 465 80 l 1
 465 360 l 1
 310 360 l 1
 310 430 l 1
 370 430 l 1
 500 640 l 1
 600 640 l 1
 470 430 l 1
EndSplineSet
Validated: 1
Colour: ff00
EndChar

StartChar: uni0E0B
Encoding: 171 3595 22
Width: 690
VWidth: -360
Flags: W
HStem: 0 80<205 495>
VStem: 40 85<420 520> 110 95<80 210> 315 85<450 520> 495 95<80 360>
LayerCount: 2
Fore
SplineSet
500 430 m 1xd8
 590 430 l 1
 590 0 l 1
 110 0 l 1
 110 230 l 1xb8
 315 450 l 1
 315 520 l 1
 220 470 l 1
 125 520 l 1
 125 420 l 1
 40 420 l 1
 40 600 l 1
 135 600 l 1
 220 550 l 1
 305 600 l 1
 400 600 l 1
 400 430 l 1
 530 640 l 1
 630 640 l 1
 500 430 l 1xd8
344 360 m 1
 205 210 l 1
 205 80 l 1
 495 80 l 1
 495 360 l 1
 344 360 l 1
EndSplineSet
Validated: 1
Colour: ff00
EndChar

StartChar: uni0E0C
Encoding: 172 3596 23
Width: 1040
VWidth: 0
Flags: W
HStem: 0 80<195 275 435 495> 520 80<50 100 195 495>
VStem: 100 95<80 520> 435 155<0 80> 495 95<80 140 220 520> 845 95<75 600>
LayerCount: 2
Fore
SplineSet
590 600 m 5xec
 590 220 l 1
 845 75 l 1
 845 600 l 1
 940 600 l 1
 940 0 l 1
 835 0 l 1
 590 140 l 1xec
 590 0 l 1
 435 0 l 1
 435 80 l 1xf4
 495 80 l 1
 495 520 l 1
 195 520 l 1
 195 80 l 1
 275 80 l 1
 275 0 l 1
 100 0 l 1
 100 520 l 1
 50 520 l 1
 50 600 l 5
 590 600 l 5xec
EndSplineSet
Validated: 1
Colour: ff00
EndChar

StartChar: uni0E0D
Encoding: 173 3597 24
Width: 1040
VWidth: 0
Flags: W
HStem: -180 120<560 650> -180 70<650 920> 0 80<195 275 590 845> 520 80<50 100 195 495>
VStem: 100 95<80 520> 495 95<80 520> 560 90<-110 -60> 845 95<80 600>
LayerCount: 2
Fore
SplineSet
560 -60 m 5xbb
 650 -60 l 5xbb
 650 -110 l 5
 920 -110 l 1
 920 -180 l 1x7b
 560 -180 l 5
 560 -60 l 5xbb
EndSplineSet
Refer: 72 60941 N 1 0 0 1 0 0 2
Validated: 1
Substitution2: "'ss01' Thai-Pali Style Set" uni0E0D.descless
Substitution2: "'salt' Thai-Pali Stylistic Alt" uni0E0D.descless
Substitution2: "'locl' Localiized Thai to Pali" uni0E0D.descless
Substitution2: "TH Descless" uni0E0D.descless
Colour: ff00
EndChar

StartChar: uni0E13
Encoding: 179 3603 25
Width: 1030
VWidth: -360
Flags: W
HStem: 0 80<195 275 920 980> 520 80<50 100 195 495>
VStem: 100 95<80 520> 495 95<75 520> 825 155<0 80> 825 95<80 140 220 600>
LayerCount: 2
Fore
SplineSet
590 600 m 5xf4
 590 75 l 1
 825 220 l 1
 825 600 l 1
 920 600 l 1
 920 80 l 1xf4
 980 80 l 1
 980 0 l 1
 825 0 l 1xf8
 825 140 l 1
 600 0 l 1
 495 0 l 1
 495 520 l 1
 195 520 l 1
 195 80 l 1
 275 80 l 1
 275 0 l 1
 100 0 l 1
 100 520 l 1
 50 520 l 1
 50 600 l 5
 590 600 l 5xf4
EndSplineSet
Validated: 1
Colour: ff00
EndChar

StartChar: uni0E12
Encoding: 178 3602 26
Width: 1050
VWidth: -360
Flags: W
HStem: 0 80<175 305 465 525> 240 80<245 305>
VStem: 80 95<80 520> 245 150<240 320> 305 90<80 240> 465 155<0 80> 525 95<80 140 220 520> 855 95<75 600>
LayerCount: 2
Fore
SplineSet
465 0 m 1xe5
 465 80 l 1xe5
 525 80 l 1
 525 520 l 1
 350 420 l 1
 175 520 l 1
 175 80 l 1
 305 80 l 1
 305 240 l 1xeb
 245 240 l 1
 245 320 l 1
 395 320 l 1xf1
 395 0 l 1
 80 0 l 1
 80 600 l 1
 185 600 l 1
 350 500 l 1
 515 600 l 1
 620 600 l 1
 620 220 l 1
 855 75 l 1
 855 600 l 1
 950 600 l 1
 950 0 l 1
 845 0 l 1
 620 140 l 1xeb
 620 0 l 1
 465 0 l 1xe5
EndSplineSet
Validated: 1
Colour: ff00
EndChar

StartChar: uni0E11
Encoding: 177 3601 27
Width: 720
VWidth: 0
Flags: W
HStem: 0 21G<120 215 525 620>
VStem: 50 85<420 520> 120 95<0 210> 525 95<0 520>
LayerCount: 2
Fore
SplineSet
120 0 m 1xb0
 120 230 l 1xb0
 325 450 l 1
 325 520 l 1
 230 470 l 1
 135 520 l 1
 135 420 l 1
 50 420 l 1
 50 600 l 1xd0
 145 600 l 1
 230 550 l 1
 315 600 l 1
 410 600 l 1
 410 510 l 1
 515 600 l 1
 620 600 l 1
 620 0 l 1
 525 0 l 1
 525 520 l 1
 410 420 l 1
 215 210 l 5
 215 0 l 5
 120 0 l 1xb0
EndSplineSet
Validated: 1
Colour: ff00
EndChar

StartChar: uni0E24
Encoding: 196 3620 28
Width: 690
VWidth: 0
Flags: W
HStem: 0 80<195 275> 520 80<50 100 195 495>
VStem: 100 95<80 520> 495 95<-240 520>
LayerCount: 2
Fore
SplineSet
495 -240 m 5
 495 520 l 1
 195 520 l 1
 195 80 l 1
 275 80 l 1
 275 0 l 1
 100 0 l 1
 100 520 l 1
 50 520 l 1
 50 600 l 1
 590 600 l 1
 590 -240 l 5
 495 -240 l 5
EndSplineSet
Validated: 1
Colour: ff00
EndChar

StartChar: uni0E26
Encoding: 198 3622 29
Width: 690
VWidth: 0
Flags: W
HStem: 0 80<50 110> 520 80<50 110 205 495>
VStem: 50 155<0 80> 110 95<80 520> 495 95<-240 520>
LayerCount: 2
Fore
SplineSet
495 -240 m 1xe8
 495 520 l 1
 205 520 l 1xd8
 205 0 l 1
 50 0 l 1
 50 80 l 1xe8
 110 80 l 1
 110 520 l 1xd8
 50 520 l 1
 50 600 l 1
 590 600 l 1
 590 -240 l 1
 495 -240 l 1xe8
EndSplineSet
Validated: 1
Colour: ff00
EndChar

StartChar: uni0E27
Encoding: 199 3623 30
Width: 600
VWidth: 0
Flags: W
HStem: 0 90<325 405> 520 80<145 405>
VStem: 50 95<400 520> 325 175<0 90> 405 95<90 520>
LayerCount: 2
Fore
SplineSet
325 90 m 1xf0
 405 90 l 1
 405 520 l 1
 145 520 l 1
 145 400 l 1
 50 400 l 1
 50 600 l 1
 500 600 l 1xe8
 500 0 l 1
 325 0 l 1
 325 90 l 1xf0
EndSplineSet
Validated: 1
Colour: ff00
EndChar

StartChar: uni0E28
Encoding: 200 3624 31
Width: 700
VWidth: 0
Flags: W
HStem: 0 21G<80 175 505 600> 200 120<295 385> 240 80<175 295> 520 80<175 505>
VStem: 80 95<0 240 320 520> 295 90<200 240> 505 95<0 520 600 680>
CounterMasks: 1 0e
LayerCount: 2
Fore
SplineSet
80 0 m 1xbe
 80 600 l 1
 510 600 l 1
 510 680 l 1
 600 680 l 1
 600 0 l 1
 505 0 l 1
 505 520 l 1
 175 520 l 1
 175 320 l 1xbe
 385 320 l 1
 385 200 l 1
 295 200 l 1xde
 295 240 l 1
 175 240 l 1
 175 0 l 1
 80 0 l 1xbe
EndSplineSet
Validated: 1
Colour: ff00
EndChar

StartChar: uni0E29
Encoding: 201 3625 32
Width: 720
VWidth: -360
Flags: W
HStem: 0 80<205 515> 240 120<330 420> 240 70<420 515 610 690> 520 80<50 110>
VStem: 50 155<520 600> 110 95<80 520> 330 90<310 360> 515 95<80 240 310 600>
LayerCount: 2
Fore
SplineSet
330 360 m 1xd7
 420 360 l 1xd7
 420 310 l 1
 515 310 l 1
 515 600 l 5
 610 600 l 5
 610 310 l 1
 690 310 l 1
 690 240 l 1
 610 240 l 1
 610 0 l 1
 110 0 l 1
 110 520 l 1xb7
 50 520 l 1
 50 600 l 1
 205 600 l 1xbb
 205 80 l 1
 515 80 l 1
 515 240 l 1xb7
 330 240 l 1
 330 360 l 1xd7
EndSplineSet
Validated: 1
Colour: ff00
EndChar

StartChar: uni0E2B
Encoding: 203 3627 33
Width: 700
VWidth: -360
Flags: W
HStem: 0 21G<110 205 495 590> 520 80<50 110 590 650>
VStem: 50 155<520 600> 110 95<0 300 380 520> 495 155<520 600> 495 95<0 440>
LayerCount: 2
Fore
SplineSet
50 600 m 1xe0
 205 600 l 1xe0
 205 380 l 1
 495 520 l 1
 495 600 l 1
 650 600 l 1
 650 520 l 1xd8
 590 520 l 1
 590 0 l 1
 495 0 l 1
 495 440 l 1
 205 300 l 1
 205 0 l 1
 110 0 l 1
 110 520 l 1xd4
 50 520 l 1
 50 600 l 1xe0
EndSplineSet
Validated: 1
Colour: ff00
EndChar

StartChar: uni0E1E
Encoding: 190 3614 34
Width: 830
VWidth: -360
Flags: W
HStem: 0 80<205 375 465 635> 520 80<50 110>
VStem: 50 155<520 600> 110 95<80 520> 375 90<80 600> 635 95<80 600>
LayerCount: 2
Fore
SplineSet
50 600 m 1xec
 205 600 l 1xec
 205 80 l 1
 375 80 l 1
 375 600 l 1
 465 600 l 1
 465 80 l 1
 635 80 l 1
 635 600 l 5
 730 600 l 5
 730 0 l 1
 110 0 l 1
 110 520 l 1xdc
 50 520 l 1
 50 600 l 1xec
EndSplineSet
Validated: 1
Colour: ff00
EndChar

StartChar: uni0E1F
Encoding: 191 3615 35
Width: 830
VWidth: -360
Flags: W
HStem: 0 80<205 375 465 635> 520 80<50 110>
VStem: 50 155<520 600> 110 95<80 520> 375 90<80 600> 635 95<80 840>
LayerCount: 2
Fore
SplineSet
50 600 m 1xec
 205 600 l 1xec
 205 80 l 1
 375 80 l 1
 375 600 l 1
 465 600 l 1
 465 80 l 1
 635 80 l 1
 635 840 l 5
 730 840 l 5
 730 0 l 1
 110 0 l 1
 110 520 l 1xdc
 50 520 l 1
 50 600 l 1xec
EndSplineSet
Validated: 1
Colour: ff00
EndChar

StartChar: uni0E1D
Encoding: 189 3613 36
Width: 810
VWidth: 0
Flags: W
HStem: 0 80<175 355 445 615> 520 80<175 235>
VStem: 80 155<520 600> 80 95<80 520> 355 90<80 600> 615 95<80 840>
LayerCount: 2
Fore
SplineSet
80 600 m 1xec
 235 600 l 1
 235 520 l 1xec
 175 520 l 1
 175 80 l 5
 355 80 l 5
 355 600 l 1
 445 600 l 1
 445 80 l 5
 615 80 l 5
 615 840 l 1
 710 840 l 1
 710 0 l 1
 80 0 l 1xdc
 80 600 l 1xec
EndSplineSet
Validated: 1
Colour: ff00
EndChar

StartChar: uni0E1C
Encoding: 188 3612 37
Width: 810
VWidth: 0
Flags: W
HStem: 0 80<175 355 445 615> 520 80<175 235>
VStem: 80 155<520 600> 80 95<80 520> 355 90<80 600> 615 95<80 600>
LayerCount: 2
Fore
SplineSet
80 600 m 1xec
 235 600 l 1
 235 520 l 1xec
 175 520 l 1
 175 80 l 1
 355 80 l 1
 355 600 l 1
 445 600 l 1
 445 80 l 1
 615 80 l 1
 615 600 l 5
 710 600 l 5
 710 0 l 1
 80 0 l 1xdc
 80 600 l 1xec
EndSplineSet
Validated: 1
Colour: ff00
EndChar

StartChar: uni0E25
Encoding: 197 3621 38
Width: 680
VWidth: 0
Flags: W
HStem: 0 80<175 255> 240 80<175 485> 520 80<175 485>
VStem: 80 95<80 240 400 520> 485 95<0 240 320 520>
LayerCount: 2
Fore
SplineSet
255 0 m 1
 80 0 l 1
 80 320 l 1
 485 320 l 1
 485 520 l 1
 175 520 l 1
 175 400 l 1
 80 400 l 1
 80 600 l 1
 580 600 l 1
 580 0 l 1
 485 0 l 1
 485 240 l 1
 175 240 l 1
 175 80 l 1
 255 80 l 1
 255 0 l 1
EndSplineSet
Validated: 1
Colour: ff00
EndChar

StartChar: uni0E2A
Encoding: 202 3626 39
Width: 680
VWidth: 0
Flags: W
HStem: 0 80<175 255> 240 80<175 485> 520 80<175 485>
VStem: 80 95<80 240 400 520> 485 95<0 240 320 520 600 680>
LayerCount: 2
Fore
SplineSet
255 0 m 1
 80 0 l 1
 80 320 l 1
 485 320 l 1
 485 520 l 1
 175 520 l 1
 175 400 l 1
 80 400 l 1
 80 600 l 1
 490 600 l 1
 490 680 l 1
 580 680 l 1
 580 0 l 1
 485 0 l 1
 485 240 l 1
 175 240 l 1
 175 80 l 1
 255 80 l 1
 255 0 l 1
EndSplineSet
Validated: 1
Colour: ff00
EndChar

StartChar: uni0E2C
Encoding: 204 3628 40
Width: 830
VWidth: -360
Flags: W
HStem: 0 80<205 375 465 635> 520 80<50 110> 530 70<555 635>
VStem: 50 155<520 600> 110 95<80 520> 375 90<80 600> 635 95<80 530 600 680>
LayerCount: 2
Fore
SplineSet
730 0 m 1xae
 110 0 l 1
 110 520 l 1xce
 50 520 l 1
 50 600 l 1xd6
 205 600 l 1xb6
 205 80 l 1
 375 80 l 1
 375 600 l 1
 465 600 l 1
 465 80 l 1
 635 80 l 1
 635 530 l 1
 555 530 l 1
 555 600 l 1
 640 600 l 1
 640 680 l 5
 730 680 l 5
 730 0 l 1xae
EndSplineSet
Validated: 1
Colour: ff00
EndChar

StartChar: uni0E22
Encoding: 194 3618 41
Width: 680
VWidth: -360
Flags: W
HStem: 0 80<175 485> 280 80<175 295> 520 80<175 295>
VStem: 80 215<280 360 520 600> 80 95<80 280 360 520> 485 95<80 600>
LayerCount: 2
Fore
SplineSet
295 360 m 1xf4
 295 280 l 1xf4
 175 280 l 1
 175 80 l 1
 485 80 l 1
 485 600 l 5
 580 600 l 5
 580 0 l 1
 80 0 l 1xec
 80 600 l 1
 295 600 l 1
 295 520 l 1xf4
 175 520 l 1
 175 360 l 1xec
 295 360 l 1xf4
EndSplineSet
Validated: 1
Colour: ff00
EndChar

StartChar: uni0E10
Encoding: 176 3600 42
Width: 640
VWidth: 0
Flags: W
HStem: -240 120<120 200> 0 80<360 435> 160 80<120 190> 320 80<170 435> 520 80<170 560>
VStem: 80 90<400 520> 120 80<-170 -120> 435 95<80 320> 450 80<-170 -60>
LayerCount: 2
Fore
SplineSet
530 -60 m 1xfa80
 530 -240 l 1
 440 -240 l 9
 320 -170 l 25
 210 -240 l 25
 120 -240 l 25
 120 -120 l 25
 200 -120 l 25
 200 -170 l 25
 320 -90 l 25
 450 -170 l 17
 450 -60 l 1
 530 -60 l 1xfa80
EndSplineSet
Refer: 73 60944 N 1 0 0 1 0 0 2
Validated: 1
Substitution2: "'ss01' Thai-Pali Style Set" uni0E10.descless
Substitution2: "'salt' Thai-Pali Stylistic Alt" uni0E10.descless
Substitution2: "'locl' Localiized Thai to Pali" uni0E10.descless
Substitution2: "TH Descless" uni0E10.descless
Colour: ff00
EndChar

StartChar: uni0E23
Encoding: 195 3619 43
Width: 600
VWidth: -360
Flags: W
HStem: 0 80<325 395> 320 80<150 395> 520 80<150 520>
VStem: 60 90<400 520> 325 165<0 80> 395 95<80 320>
LayerCount: 2
Fore
SplineSet
325 80 m 1xf8
 395 80 l 1
 395 320 l 1
 60 320 l 5
 60 600 l 1
 520 600 l 1
 520 520 l 1
 150 520 l 1
 150 400 l 1
 490 400 l 1xf4
 490 0 l 1
 325 0 l 1
 325 80 l 1xf8
EndSplineSet
Validated: 1
Colour: ff00
EndChar

StartChar: uni0E18
Encoding: 184 3608 44
Width: 650
VWidth: -360
Flags: W
HStem: 0 80<175 455> 320 80<170 455> 520 80<170 560>
VStem: 80 95<80 240 400 520> 455 95<80 320>
LayerCount: 2
Fore
SplineSet
175 240 m 5
 175 80 l 5
 455 80 l 5
 455 320 l 5
 80 320 l 5
 80 600 l 5
 560 600 l 5
 560 520 l 5
 170 520 l 5
 170 400 l 5
 550 400 l 5
 550 0 l 5
 80 0 l 5
 80 240 l 5
 175 240 l 5
EndSplineSet
Validated: 1
Colour: ff00
EndChar

StartChar: uni0E0E
Encoding: 174 3598 45
Width: 690
VWidth: 0
Flags: W
HStem: -180 110<135 205> 0 80<50 110> 520 80<50 110 205 495>
VStem: 50 155<0 80> 110 95<80 520> 135 70<-180 -135> 495 95<-120 520>
LayerCount: 2
Fore
SplineSet
590 -180 m 1xf2
 485 -180 l 1
 205 -135 l 5
 205 -180 l 5
 135 -180 l 5
 135 -70 l 5
 205 -70 l 5xe6
 495 -120 l 1
 495 520 l 1
 205 520 l 1xea
 205 0 l 1
 50 0 l 1
 50 80 l 1xf2
 110 80 l 1
 110 520 l 1xea
 50 520 l 1
 50 600 l 1
 590 600 l 1
 590 -180 l 1xf2
EndSplineSet
Validated: 1
Colour: ff00
EndChar

StartChar: uni0E0F
Encoding: 175 3599 46
Width: 690
VWidth: 0
Flags: W
HStem: -180 120<125 205> 0 80<50 110> 520 80<50 110 205 495>
VStem: 50 155<0 80> 110 95<80 520> 125 80<-110 -60> 495 95<-110 520>
LayerCount: 2
Fore
SplineSet
590 -180 m 1xf2
 485 -180 l 1
 345 -110 l 1
 215 -180 l 1
 125 -180 l 1
 125 -60 l 1
 205 -60 l 1
 205 -110 l 1xe6
 345 -30 l 1
 495 -110 l 1
 495 520 l 1
 205 520 l 1xea
 205 0 l 5
 50 0 l 1
 50 80 l 1xf2
 110 80 l 1
 110 520 l 1xea
 50 520 l 1
 50 600 l 1
 590 600 l 1
 590 -180 l 1xf2
EndSplineSet
Validated: 1
Colour: ff00
EndChar

StartChar: uni0E31
Encoding: 209 3633 47
Width: 0
VWidth: 0
Flags: W
HStem: 720 130<-340 -250> 720 80<-250 -20>
VStem: -340 90<800 850>
LayerCount: 2
Fore
SplineSet
-340 850 m 5xa0
 -250 850 l 5xa0
 -250 800 l 5
 -20 800 l 1
 -20 720 l 1x60
 -340 720 l 5
 -340 850 l 5xa0
EndSplineSet
Validated: 1
Substitution2: "TH Vowel to Left" uni0E31.left
Colour: ff00
EndChar

StartChar: uni0E34
Encoding: 212 3636 48
Width: 0
VWidth: 0
Flags: W
HStem: 720 80<-480 -100>
VStem: -480 380<720 800>
LayerCount: 2
Fore
SplineSet
-100 800 m 1
 -100 720 l 1
 -480 720 l 1
 -480 800 l 1
 -100 800 l 1
EndSplineSet
Validated: 1
Substitution2: "TH Vowel to Left" uni0E34.left
Colour: ff00
EndChar

StartChar: uni0E35
Encoding: 213 3637 49
Width: 0
VWidth: 0
Flags: W
HStem: 700 150<-190 -100> 700 80<-480 -190>
VStem: -190 90<780 850>
LayerCount: 2
Fore
SplineSet
-100 850 m 1xa0
 -100 700 l 1xa0
 -480 700 l 1
 -480 780 l 1
 -190 780 l 1x60
 -190 850 l 1
 -100 850 l 1xa0
EndSplineSet
Validated: 1
Substitution2: "TH Vowel to Left" uni0E35.left
Colour: ff00
EndChar

StartChar: uni0E36
Encoding: 214 3638 50
Width: 0
VWidth: 0
Flags: W
HStem: 700 80<-480 -240> 700 40<-200 -140> 810 40<-200 -140>
VStem: -240 40<780 810> -140 40<740 810>
LayerCount: 2
Fore
SplineSet
-200 810 m 1x78
 -200 740 l 1
 -140 740 l 1
 -140 810 l 1
 -200 810 l 1x78
-100 850 m 1
 -100 700 l 1x78
 -480 700 l 5
 -480 780 l 5
 -240 780 l 1xb8
 -240 850 l 1
 -100 850 l 1
EndSplineSet
Validated: 1
Substitution2: "TH Vowel to Left" uni0E36.left
Colour: ff00
EndChar

StartChar: uni0E37
Encoding: 215 3639 51
Width: 0
VWidth: 0
Flags: W
HStem: 700 150<-290 -220 -170 -100> 700 80<-480 -290> 700 60<-220 -170>
VStem: -290 70<780 850> -170 70<760 850>
LayerCount: 2
Fore
SplineSet
-100 850 m 1x98
 -100 700 l 1x98
 -480 700 l 5
 -480 780 l 5
 -290 780 l 1x58
 -290 850 l 1
 -220 850 l 1x98
 -220 760 l 1
 -170 760 l 1x38
 -170 850 l 1
 -100 850 l 1x98
EndSplineSet
Validated: 1
Substitution2: "TH Vowel to Left" uni0E37.left
Colour: ff00
EndChar

StartChar: uni0E4D
Encoding: 237 3661 52
Width: 0
VWidth: 0
Flags: W
HStem: 710 45<-200 -120> 825 45<-200 -120>
VStem: -250 50<755 825> -120 50<755 825>
LayerCount: 2
Fore
SplineSet
-200 825 m 5
 -200 755 l 5
 -120 755 l 5
 -120 825 l 5
 -200 825 l 5
-250 870 m 5
 -70 870 l 5
 -70 710 l 5
 -250 710 l 5
 -250 870 l 5
EndSplineSet
Validated: 1
Substitution2: "TH Nikhahit High" uni0E4D.high
Substitution2: "TH Nikhahit High-Left" uni0E4D.high.left
Substitution2: "TH Vowel to Left" uni0E4D.left
Colour: ff00
EndChar

StartChar: uni0E32
Encoding: 210 3634 53
Width: 540
VWidth: 0
Flags: W
HStem: 0 21G<345 440> 520 80<145 345>
VStem: 50 95<400 520> 345 95<0 520>
LayerCount: 2
Fore
SplineSet
345 520 m 1
 145 520 l 1
 145 400 l 1
 50 400 l 1
 50 600 l 1
 440 600 l 1
 440 0 l 1
 345 0 l 1
 345 520 l 1
EndSplineSet
Validated: 1
Colour: ff00
EndChar

StartChar: uni0E38
Encoding: 216 3640 54
Width: 0
VWidth: 0
Flags: W
HStem: -130 70<-250 -190>
VStem: -250 140<-130 -60> -190 80<-240 -130>
LayerCount: 2
Fore
SplineSet
-190 -240 m 1xa0
 -190 -130 l 1xa0
 -250 -130 l 1
 -250 -60 l 1
 -110 -60 l 1xc0
 -110 -240 l 1
 -190 -240 l 1xa0
EndSplineSet
Validated: 1
Substitution2: "TH Vow Lower" uni0E38.low
Colour: ff00
EndChar

StartChar: uni0E3A
Encoding: 218 3642 55
Width: 0
VWidth: 0
Flags: W
HStem: -160 100<-195 -105>
VStem: -195 90<-160 -60>
LayerCount: 2
Fore
SplineSet
-195 -60 m 5
 -105 -60 l 5
 -105 -160 l 5
 -195 -160 l 5
 -195 -60 l 5
EndSplineSet
Validated: 1
Substitution2: "TH Vow Lower" uni0E3A.low
Colour: ff00
EndChar

StartChar: uni0E39
Encoding: 217 3641 56
Width: 0
VWidth: 0
Flags: W
HStem: -240 60<-300 -190> -130 70<-430 -380>
VStem: -430 130<-130 -60> -380 80<-180 -130> -190 80<-180 -58>
LayerCount: 2
Fore
SplineSet
-380 -240 m 5xd8
 -380 -130 l 5xd8
 -430 -130 l 5
 -430 -60 l 5
 -300 -60 l 5xe8
 -300 -180 l 5
 -190 -180 l 5
 -190 -58 l 5
 -110 -58 l 5
 -110 -240 l 5
 -380 -240 l 5xd8
EndSplineSet
Validated: 1
Substitution2: "TH Vow Lower" uni0E39.low
Colour: ff00
EndChar

StartChar: uni0E49.high
Encoding: 233 3657 57
Width: 0
VWidth: 0
Flags: W
HStem: 900 60<-280 -210 -140 -10> 1010 50<-240 -210>
VStem: -240 100<1010 1060> -210 70<960 1010>
LayerCount: 2
Fore
SplineSet
-210 1010 m 5xd0
 -240 1010 l 5
 -240 1060 l 5
 -140 1060 l 5xe0
 -140 960 l 5
 -10 960 l 5
 -10 900 l 5
 -280 900 l 5
 -280 960 l 5
 -210 960 l 5
 -210 1010 l 5xd0
EndSplineSet
Validated: 1
Substitution2: "TH Tone High to Low-Left" uni0E49.low.left
Substitution2: "TH Tone High to Low" uni0E49.low
Substitution2: "TH Tone High to High-Left" uni0E49.high.left
Colour: ff00
EndChar

StartChar: uni0E48.high
Encoding: 232 3656 58
Width: 0
VWidth: 0
Flags: W
HStem: 900 160<-185 -110>
VStem: -185 75<900 1060>
LayerCount: 2
Fore
SplineSet
-185 1060 m 1
 -110 1060 l 1
 -110 900 l 5
 -185 900 l 5
 -185 1060 l 1
EndSplineSet
Validated: 1
Substitution2: "TH Tone High to Low-Left" uni0E48.low.left
Substitution2: "TH Tone High to Low" uni0E48.low
Substitution2: "TH Tone High to High-Left" uni0E48.high.left
Colour: ff00
EndChar

StartChar: uni0E4B.high
Encoding: 235 3659 59
Width: 0
VWidth: 0
Flags: W
HStem: 955 50<-250 -185 -115 -50>
VStem: -185 70<900 955 1005 1060>
LayerCount: 2
Fore
SplineSet
-185 1060 m 1
 -115 1060 l 1
 -115 1005 l 1
 -50 1005 l 1
 -50 955 l 1
 -115 955 l 1
 -115 900 l 5
 -185 900 l 5
 -185 955 l 1
 -250 955 l 1
 -250 1005 l 1
 -185 1005 l 1
 -185 1060 l 1
EndSplineSet
Validated: 1
Substitution2: "TH Tone High to Low-Left" uni0E4B.low.left
Substitution2: "TH Tone High to Low" uni0E4B.low
Substitution2: "TH Tone High to High-Left" uni0E4B.high.left
Colour: ff00
EndChar

StartChar: uni0E40
Encoding: 224 3648 60
Width: 320
VWidth: 0
Flags: W
HStem: 0 80<205 265>
VStem: 110 155<0 80> 110 95<80 600>
LayerCount: 2
Fore
SplineSet
110 600 m 1xa0
 205 600 l 1
 205 80 l 1xa0
 265 80 l 5
 265 0 l 5
 110 0 l 1xc0
 110 600 l 1xa0
EndSplineSet
Validated: 1
Colour: ff00
EndChar

StartChar: uni0E2F
Encoding: 207 3631 62
Width: 600
VWidth: 0
Flags: W
HStem: 0 21G<405 500> 320 80<145 405> 520 80<145 205>
VStem: 50 155<520 600> 50 95<400 520> 405 95<0 320 400 600>
LayerCount: 2
Fore
SplineSet
405 0 m 1xec
 405 320 l 1
 50 320 l 5xec
 50 600 l 1
 205 600 l 1
 205 520 l 1xf4
 145 520 l 1
 145 400 l 1
 405 400 l 1
 405 600 l 1
 500 600 l 1
 500 0 l 1
 405 0 l 1xec
EndSplineSet
Validated: 1
Colour: ff00
EndChar

StartChar: uni0E30
Encoding: 208 3632 63
Width: 490
VWidth: 0
Flags: W
HStem: 120 120<70 165> 120 80<165 400> 420 120<70 165> 420 80<165 400>
VStem: 70 95<200 240 500 540>
LayerCount: 2
Fore
SplineSet
70 240 m 1x88
 165 240 l 1x88
 165 200 l 1
 400 200 l 1
 400 120 l 1x48
 70 120 l 1
 70 240 l 1x88
70 540 m 1x28
 165 540 l 1x28
 165 500 l 1
 400 500 l 1
 400 420 l 1x18
 70 420 l 1
 70 540 l 1x28
EndSplineSet
Validated: 1
Colour: ff00
EndChar

StartChar: uni0E4A.high
Encoding: 234 3658 64
Width: 0
VWidth: 0
Flags: W
HStem: 900 150<-320 -265 -175 -120 -85 -30> 900 40<-120 -85>
VStem: -320 55<900 990> -175 55<940 990> -85 55<940 1050>
LayerCount: 2
Fore
SplineSet
-175 900 m 1xb8
 -175 990 l 1
 -220 940 l 1x78
 -265 990 l 1
 -265 900 l 1
 -320 900 l 5
 -320 1050 l 1
 -265 1050 l 1
 -220 1000 l 1
 -175 1050 l 1
 -120 1050 l 1xb8
 -120 940 l 1
 -85 940 l 1x78
 -85 1050 l 1
 -30 1050 l 1
 -30 900 l 1
 -175 900 l 1xb8
EndSplineSet
Validated: 1
Substitution2: "TH Tone High to Low-Left" uni0E4A.low.left
Substitution2: "TH Tone High to Low" uni0E4A.low
Substitution2: "TH Tone High to High-Left" uni0E4A.high.left
Colour: ff00
EndChar

StartChar: uni0E47
Encoding: 231 3655 65
Width: 0
VWidth: 0
Flags: W
HStem: 700 110<-170 -100> 860 100<-160 -100> 860 60<-370 -160>
VStem: -440 70<760 860> -170 70<760 810> -160 60<920 960>
LayerCount: 2
Fore
SplineSet
-170 810 m 5xb8
 -100 810 l 1xb8
 -100 700 l 1xb4
 -170 700 l 5xb8
 -270 740 l 1
 -370 700 l 1
 -440 700 l 1
 -440 920 l 1
 -160 920 l 1xb4
 -160 960 l 1
 -100 960 l 1
 -100 860 l 1xd4
 -370 860 l 1
 -370 760 l 1
 -270 800 l 1
 -170 760 l 5
 -170 810 l 5xb8
EndSplineSet
Validated: 1
Substitution2: "TH Vowel to Left" uni0E47.left
Colour: ff00
EndChar

StartChar: uni0E4C.high
Encoding: 236 3660 66
Width: 0
VWidth: 0
Flags: W
HStem: 900 120<-250 -170> 950 70<-170 -30>
VStem: -250 80<900 950>
LayerCount: 2
Fore
SplineSet
-250 900 m 1xa0
 -250 1020 l 1xa0
 -30 1020 l 1
 -30 950 l 1
 -170 950 l 5x60
 -170 900 l 5
 -250 900 l 1xa0
EndSplineSet
Validated: 1
Substitution2: "TH Tone High to Low-Left" uni0E4C.low.left
Substitution2: "TH Tone High to Low" uni0E4C.low
Substitution2: "TH Tone High to High-Left" uni0E4C.high.left
Colour: ff00
EndChar

StartChar: uni0E43
Encoding: 227 3651 67
Width: 340
VWidth: 0
Flags: W
HStem: 0 80<215 275> 700 140<10 90> 780 60<90 270>
VStem: 10 80<700 780> 120 155<0 80> 120 95<80 585> 270 80<670 780>
LayerCount: 2
Fore
SplineSet
215 80 m 1xb6
 275 80 l 1
 275 0 l 1
 120 0 l 1xb8
 120 620 l 1
 270 670 l 1
 270 780 l 1
 90 780 l 1xb6
 90 700 l 1
 10 700 l 1
 10 840 l 1xd6
 350 840 l 1
 350 630 l 1
 215 585 l 1
 215 80 l 1xb6
EndSplineSet
Validated: 1
Colour: ff00
EndChar

StartChar: uni0E44
Encoding: 228 3652 68
Width: 340
VWidth: 0
Flags: W
HStem: 0 80<215 275>
VStem: 120 155<0 80> 120 95<80 610> 260 70<700 751>
LayerCount: 2
Fore
SplineSet
0 770 m 1xb0
 0 840 l 1
 150 770 l 1
 330 840 l 1
 330 670 l 5
 215 610 l 5
 215 80 l 1xb0
 275 80 l 1
 275 0 l 1
 120 0 l 1xc0
 120 630 l 1
 260 700 l 1
 260 751 l 1
 150 705 l 1
 0 770 l 1xb0
EndSplineSet
Validated: 1
Colour: ff00
EndChar

StartChar: uni0E42
Encoding: 226 3650 69
Width: 340
VWidth: 0
Flags: W
HStem: 0 80<215 275> 640 60<80 120> 770 70<80 340>
VStem: 0 80<700 770> 120 155<0 80> 120 95<80 640>
LayerCount: 2
Fore
SplineSet
120 640 m 5xf4
 0 640 l 5
 0 840 l 5
 340 840 l 5
 340 770 l 5
 80 770 l 5
 80 700 l 5
 215 700 l 5
 215 80 l 5xf4
 275 80 l 5
 275 0 l 5
 120 0 l 5xf8
 120 640 l 5xf4
EndSplineSet
Validated: 1
Colour: ff00
EndChar

StartChar: uni0E45
Encoding: 229 3653 70
Width: 540
VWidth: 0
Flags: W
HStem: 520 80<145 345>
VStem: 50 95<400 520> 345 95<-240 520>
LayerCount: 2
Fore
SplineSet
345 520 m 1
 145 520 l 1
 145 400 l 1
 50 400 l 1
 50 600 l 1
 440 600 l 1
 440 -240 l 1
 345 -240 l 1
 345 520 l 1
EndSplineSet
Validated: 1
Colour: ff00
EndChar

StartChar: uni0E46
Encoding: 230 3654 71
Width: 600
VWidth: 0
Flags: W
HStem: 320 80<140 200>
VStem: 50 150<320 400> 50 90<400 520> 405 95<-240 520>
LayerCount: 2
Fore
SplineSet
50 320 m 1xd0
 50 600 l 1
 150 600 l 1
 275 510 l 1
 400 600 l 5
 500 600 l 5
 500 -240 l 5
 405 -240 l 5
 405 520 l 5
 275 430 l 1
 140 520 l 1
 140 400 l 9xb0
 200 400 l 25
 200 320 l 25
 50 320 l 1xd0
EndSplineSet
Validated: 1
Colour: ff00
EndChar

StartChar: uni0E0D.descless
Encoding: 256 60941 72
Width: 1040
VWidth: -360
Flags: W
HStem: 0 80<195 275 590 845> 520 80<50 100 195 495>
VStem: 100 95<80 520> 495 95<80 520> 845 95<80 600>
LayerCount: 2
Fore
SplineSet
50 600 m 1
 590 600 l 1
 590 80 l 1
 845 80 l 1
 845 600 l 1
 940 600 l 1
 940 0 l 1
 495 0 l 1
 495 520 l 1
 195 520 l 1
 195 80 l 1
 275 80 l 1
 275 0 l 1
 100 0 l 1
 100 520 l 1
 50 520 l 1
 50 600 l 1
EndSplineSet
Validated: 1
Colour: ff00
EndChar

StartChar: uni0E10.descless
Encoding: 257 60944 73
Width: 640
VWidth: 0
Flags: W
HStem: 0 80<360 435> 160 80<120 190> 320 80<170 435> 520 80<170 560>
VStem: 80 90<400 520> 435 95<80 320>
LayerCount: 2
Fore
SplineSet
80 600 m 1
 560 600 l 1
 560 520 l 1
 170 520 l 1
 170 400 l 1
 530 400 l 1
 530 0 l 1
 310 0 l 1
 190 160 l 1
 120 160 l 1
 120 240 l 1
 240 240 l 1
 360 80 l 1
 435 80 l 1
 435 320 l 1
 80 320 l 1
 80 600 l 1
EndSplineSet
Validated: 1
Colour: ff00
EndChar

StartChar: uni0E48.low
Encoding: 258 -1 74
Width: 0
VWidth: 0
Flags: W
HStem: 720 180<-190 -110>
VStem: -190 80<720 900>
LayerCount: 2
Fore
SplineSet
-190 900 m 1
 -110 900 l 1
 -110 720 l 5
 -190 720 l 1
 -190 900 l 1
EndSplineSet
Validated: 1
Substitution2: "TH Tone Low to High" uni0E48.high
Colour: ff00
EndChar

StartChar: uni0E49.low
Encoding: 259 -1 75
Width: 0
VWidth: 0
Flags: W
HStem: 720 70<-330 -250 -170 -30> 840 60<-290 -250>
VStem: -290 120<840 900> -250 80<790 840>
LayerCount: 2
Fore
SplineSet
-250 840 m 1xd0
 -290 840 l 1
 -290 900 l 1
 -170 900 l 1xe0
 -170 790 l 1
 -30 790 l 1
 -30 720 l 1
 -330 720 l 1
 -330 790 l 1
 -250 790 l 1
 -250 840 l 1xd0
EndSplineSet
Validated: 1
Substitution2: "TH Tone Low to High" uni0E49.high
Colour: ff00
EndChar

StartChar: uni0E4A.low
Encoding: 260 -1 76
Width: 0
VWidth: 0
Flags: W
HStem: 720 150<-390 -330 -200 -140 -90 -30> 720 50<-140 -90>
VStem: -390 60<720 800> -200 60<770 800> -90 60<770 870>
LayerCount: 2
Fore
SplineSet
-200 720 m 1xb8
 -200 800 l 1
 -265 750 l 1
 -330 800 l 5
 -330 720 l 5
 -390 720 l 5
 -390 870 l 5
 -330 870 l 5
 -265 820 l 1
 -200 870 l 1
 -140 870 l 1xb8
 -140 770 l 1
 -90 770 l 1x78
 -90 870 l 1
 -30 870 l 1
 -30 720 l 1
 -200 720 l 1xb8
EndSplineSet
Validated: 1
Substitution2: "TH Tone Low to High" uni0E4A.high
Colour: ff00
EndChar

StartChar: uni0E4B.low
Encoding: 261 -1 77
Width: 0
VWidth: 0
Flags: W
HStem: 785 50<-250 -185 -115 -50>
VStem: -185 70<720 785 835 900>
LayerCount: 2
Fore
SplineSet
-185 900 m 1
 -115 900 l 1
 -115 835 l 1
 -50 835 l 1
 -50 785 l 1
 -115 785 l 1
 -115 720 l 5
 -185 720 l 5
 -185 785 l 1
 -250 785 l 1
 -250 835 l 1
 -185 835 l 1
 -185 900 l 1
EndSplineSet
Validated: 1
Substitution2: "TH Tone Low to High" uni0E4B.high
Colour: ff00
EndChar

StartChar: uni0E4C.low
Encoding: 262 -1 78
Width: 0
VWidth: 0
Flags: W
HStem: 720 120<-250 -160> 770 70<-160 -30>
VStem: -250 90<720 770>
LayerCount: 2
Fore
SplineSet
-250 720 m 1xa0
 -250 840 l 1xa0
 -30 840 l 1
 -30 770 l 1
 -160 770 l 1x60
 -160 720 l 1
 -250 720 l 1xa0
EndSplineSet
Validated: 1
Substitution2: "TH Tone Low to High" uni0E4C.high
Colour: ff00
EndChar

StartChar: uni0E3F
Encoding: 223 3647 79
Width: 670
VWidth: 0
Flags: W
HStem: -72 162<270 350> 0 90<180 270 350 480> 350 90<180 350> 690 90<180 270 350 450>
VStem: 80 100<90 350 440 690> 270 80<-72 0 780 870> 450 100<510 690> 480 100<90 265>
LayerCount: 2
Fore
SplineSet
350 440 m 1x3e
 450 510 l 1
 450 690 l 1
 180 690 l 1
 180 440 l 1
 350 440 l 1x3e
350 350 m 1
 180 350 l 1
 180 90 l 1
 480 90 l 1
 480 265 l 1x7d
 350 350 l 1
550 780 m 1x7e
 550 490 l 1x7e
 420 395 l 1
 580 285 l 1
 580 0 l 1
 350 0 l 1x7d
 350 -72 l 1
 270 -72 l 1xbd
 270 0 l 1
 80 0 l 1
 80 780 l 1
 270 780 l 1
 270 870 l 1
 350 870 l 1
 350 780 l 1
 550 780 l 1x7e
EndSplineSet
Validated: 1
Colour: ff0000
EndChar

StartChar: uni0E4E
Encoding: 238 3662 85
Width: 0
VWidth: 0
Flags: W
HStem: 700 135<-420 -350> 780 55<-350 -310> 890 60<-250 -180>
VStem: -420 70<700 780> -310 130<890 950> -310 60<835 890>
LayerCount: 2
Fore
SplineSet
-420 700 m 5xb4
 -420 835 l 5xb4
 -310 835 l 5x74
 -310 950 l 5
 -180 950 l 1
 -180 890 l 1x78
 -250 890 l 5
 -250 780 l 5
 -350 780 l 5x74
 -350 700 l 5
 -420 700 l 5xb4
EndSplineSet
Validated: 1
Colour: ff00
EndChar

StartChar: uni0E4F
Encoding: 239 3663 91
Width: 780
VWidth: 0
Flags: W
HStem: 0 70<160 600> 205 55<340 420> 340 55<340 420> 530 70<160 600>
VStem: 80 80<70 530> 275 65<260 340> 420 65<260 340> 600 80<70 530>
LayerCount: 2
Fore
SplineSet
160 70 m 1
 600 70 l 1
 600 530 l 1
 160 530 l 1
 160 70 l 1
80 600 m 1
 680 600 l 1
 680 0 l 1
 80 0 l 1
 80 600 l 1
340 340 m 1
 340 260 l 1
 420 260 l 1
 420 340 l 1
 340 340 l 1
275 395 m 1
 485 395 l 1
 485 205 l 1
 275 205 l 1
 275 395 l 1
EndSplineSet
Validated: 1
Colour: ff00
EndChar

StartChar: uni0E50
Encoding: 240 3664 92
Width: 720
VWidth: 0
Flags: W
HStem: 0 80<175 525> 520 80<175 525>
VStem: 80 95<80 520> 525 95<80 520>
LayerCount: 2
Fore
SplineSet
175 80 m 1
 525 80 l 1
 525 520 l 1
 175 520 l 1
 175 80 l 1
80 600 m 1
 620 600 l 1
 620 0 l 1
 80 0 l 1
 80 600 l 1
EndSplineSet
Validated: 1
Colour: ff00
EndChar

StartChar: uni0E51
Encoding: 241 3665 93
Width: 720
VWidth: 0
Flags: W
HStem: 0 80<175 525> 210 140<300 395> 210 80<175 300> 520 80<175 525>
VStem: 80 95<290 520> 300 95<290 350> 525 95<80 520>
LayerCount: 2
Fore
SplineSet
525 80 m 1xbe
 525 520 l 1
 175 520 l 1
 175 290 l 1
 300 290 l 1xbe
 300 350 l 1
 395 350 l 1
 395 210 l 1xde
 80 210 l 5
 80 600 l 1
 620 600 l 1
 620 0 l 1
 175 0 l 1
 175 80 l 1
 525 80 l 1xbe
EndSplineSet
Validated: 1
Colour: ff00
EndChar

StartChar: uni0E52
Encoding: 242 3666 94
Width: 810
VWidth: 0
Flags: W
HStem: 0 80<175 615> 240 80<350 430>
VStem: 80 95<80 840> 260 170<240 320> 260 90<320 520> 615 95<80 520>
LayerCount: 2
Fore
SplineSet
80 0 m 1xec
 80 840 l 1
 175 840 l 1
 175 80 l 1
 615 80 l 1
 615 520 l 1
 485 430 l 1
 350 520 l 1
 350 320 l 1xec
 430 320 l 1
 430 240 l 5
 260 240 l 1xf4
 260 600 l 1
 360 600 l 1
 485 510 l 1
 610 600 l 1
 710 600 l 1
 710 0 l 1
 80 0 l 1xec
EndSplineSet
Validated: 1
Colour: ff00
EndChar

StartChar: uni0E53
Encoding: 243 3667 95
Width: 770
VWidth: 0
Flags: W
HStem: 0 80<175 235> 520 80<175 335 425 575>
VStem: 80 155<0 80> 80 95<80 520> 335 90<240 520> 575 95<2 520>
LayerCount: 2
Fore
SplineSet
80 0 m 1xec
 80 600 l 1
 670 600 l 1
 670 2 l 1
 575 0 l 1
 575 520 l 1
 425 520 l 1
 425 240 l 1
 335 240 l 1
 335 520 l 1
 175 520 l 1
 175 80 l 1xdc
 235 80 l 1
 235 0 l 1
 80 0 l 1xec
EndSplineSet
Validated: 1
Colour: ff00
EndChar

StartChar: uni0E54
Encoding: 244 3668 96
Width: 720
VWidth: 0
Flags: W
HStem: 0 80<175 390 480 630> 220 80<480 540> 520 80<175 510>
VStem: 80 95<80 520> 390 150<220 300> 390 90<80 220>
LayerCount: 2
Fore
SplineSet
540 300 m 1xf8
 540 220 l 1xf8
 480 220 l 5
 480 80 l 1
 630 80 l 1
 630 0 l 1
 80 0 l 1
 80 600 l 1
 510 600 l 1
 605 840 l 1
 700 840 l 1
 570 520 l 1
 175 520 l 1
 175 80 l 1
 390 80 l 1xf4
 390 300 l 1
 540 300 l 1xf8
EndSplineSet
Validated: 1
Colour: ff00
EndChar

StartChar: uni0E55
Encoding: 245 3669 97
Width: 720
VWidth: 0
Flags: W
HStem: 0 80<175 390 480 630> 220 80<480 540> 520 80<175 270 320 400 450 510> 670 45<320 400>
VStem: 80 95<80 520> 270 50<600 670> 390 150<220 300> 390 90<80 220> 400 50<600 670>
LayerCount: 2
Fore
SplineSet
270 715 m 5xfd
 450 715 l 1
 450 600 l 1xfc80
 510 600 l 1
 605 840 l 1
 700 840 l 1
 570 520 l 1
 175 520 l 1
 175 80 l 1
 390 80 l 1xfd
 390 300 l 1
 540 300 l 1
 540 220 l 1xfe
 480 220 l 1
 480 80 l 1
 630 80 l 1
 630 0 l 1
 80 0 l 1
 80 600 l 1
 270 600 l 1
 270 715 l 5xfd
320 600 m 1
 400 600 l 1
 400 670 l 1
 320 670 l 1
 320 600 l 1
EndSplineSet
Validated: 1
Colour: ff00
EndChar

StartChar: uni0E56
Encoding: 246 3670 98
Width: 680
VWidth: 0
Flags: W
HStem: 0 160<120 210> 0 80<210 485> 520 80<190 485>
VStem: 120 90<80 160> 485 95<80 520>
LayerCount: 2
Fore
SplineSet
210 160 m 1xb8
 210 80 l 1
 485 80 l 1
 485 520 l 1
 130 520 l 1
 0 840 l 1
 95 840 l 1
 190 600 l 1
 580 600 l 1
 580 0 l 1x78
 120 0 l 1
 120 160 l 1
 210 160 l 1xb8
EndSplineSet
Validated: 1
Colour: ff00
EndChar

StartChar: uni0E57
Encoding: 247 3671 99
Width: 980
VWidth: 0
Flags: W
HStem: 0 80<175 235 670 785> 520 80<175 335 425 575>
VStem: 80 155<0 80> 80 95<80 520> 335 90<240 520> 575 95<80 520> 785 95<80 840>
LayerCount: 2
Fore
SplineSet
575 0 m 1xde
 575 520 l 1
 425 520 l 1
 425 240 l 1
 335 240 l 1
 335 520 l 1
 175 520 l 1
 175 80 l 1xde
 235 80 l 1
 235 0 l 1
 80 0 l 1xee
 80 600 l 1
 670 600 l 1
 670 80 l 1
 785 80 l 1
 785 840 l 5
 880 840 l 5
 880 0 l 1
 575 0 l 1xde
EndSplineSet
Validated: 1
Colour: ff00
EndChar

StartChar: uni0E58
Encoding: 248 3672 100
Width: 720
VWidth: 0
Flags: W
HStem: 0 21G<80 218.889 491.111 630> 280 80<460 540> 520 80<175 510>
VStem: 80 95<80 520> 460 170<280 360> 540 90<80 280>
LayerCount: 2
Fore
SplineSet
570 520 m 1xf4
 175 520 l 1
 175 80 l 1
 355 170 l 1
 540 80 l 1
 540 280 l 1xf4
 460 280 l 1
 460 360 l 1
 630 360 l 1xf8
 630 0 l 1
 530 0 l 1
 355 90 l 1
 180 0 l 1
 80 0 l 1
 80 600 l 1
 510 600 l 1
 605 840 l 1
 700 840 l 1
 570 520 l 1xf4
EndSplineSet
Validated: 1
Colour: ff00
EndChar

StartChar: uni0E59
Encoding: 249 3673 101
Width: 770
VWidth: 0
Flags: W
HStem: 0 80<175 235> 520 80<175 335 425 575>
VStem: 80 155<0 80> 80 95<80 520> 335 90<150 520> 575 95<300 520 600 840>
LayerCount: 2
Fore
SplineSet
575 300 m 5xdc
 575 520 l 5
 425 520 l 5
 425 150 l 5
 335 150 l 5
 335 520 l 5
 175 520 l 5
 175 80 l 5xdc
 235 80 l 5
 235 0 l 5
 80 0 l 5xec
 80 600 l 5
 575 600 l 5
 575 840 l 5
 670 840 l 5
 670 300 l 5
 575 300 l 5xdc
EndSplineSet
Validated: 1
Colour: ff00
EndChar

StartChar: uni0E5A
Encoding: 250 3674 102
Width: 770
VWidth: 0
Flags: W
HStem: 0 21G<405 490 585 670> 320 80<145 405> 520 80<145 205>
VStem: 50 155<520 600> 50 95<400 520> 405 85<0 320 400 600> 585 85<0 597>
LayerCount: 2
Fore
SplineSet
405 0 m 1xee
 405 320 l 1
 50 320 l 1xee
 50 600 l 1
 205 600 l 1
 205 520 l 1xf6
 145 520 l 1
 145 400 l 1
 405 400 l 1
 405 600 l 1
 490 600 l 1
 490 0 l 1
 405 0 l 1xee
585 597 m 1
 670 597 l 1
 670 0 l 1
 585 0 l 1
 585 597 l 1
EndSplineSet
Validated: 1
Colour: ff00
EndChar

StartChar: uni0E5B
Encoding: 251 3675 103
Width: 930
VWidth: 0
Flags: W
HStem: 0 70<160 365> 300 60<640 840> 440 60<440 570> 530 70<160 285>
VStem: 80 80<70 530> 365 75<70 440> 570 70<150 300 360 440>
LayerCount: 2
Fore
SplineSet
570 150 m 1
 570 440 l 1
 440 440 l 1
 440 0 l 1
 80 0 l 1
 80 600 l 1
 285 600 l 1
 285 530 l 1
 160 530 l 1
 160 70 l 1
 365 70 l 1
 365 500 l 1
 640 500 l 1
 640 360 l 1
 840 360 l 1
 840 300 l 1
 640 300 l 1
 640 150 l 1
 570 150 l 1
EndSplineSet
Validated: 1
Colour: ff00
EndChar

